<?xml version="1.0" standalone="no"?>
<!DOCTYPE svg PUBLIC "-//W3C//DTD SVG 20010904//EN"
 "http://www.w3.org/TR/2001/REC-SVG-20010904/DTD/svg10.dtd">
<svg version="1.0" xmlns="http://www.w3.org/2000/svg"
 width="300.000000pt" height="300.000000pt" viewBox="0 0 300.000000 300.000000"
 preserveAspectRatio="xMidYMid meet">
<metadata>
Created by potrace 1.10, written by Peter Selinger 2001-2011
</metadata>
<g transform="translate(0.000000,300.000000) scale(0.100000,-0.100000)"
fill="#000000" stroke="none">
<path d="M610 1500 l0 -130 133 1 c126 0 131 1 108 17 -14 10 -38 15 -60 13
l-36 -3 50 51 49 51 -47 47 -47 48 -47 -47 -47 -48 42 -43 c23 -23 42 -46 42
-50 0 -5 -24 -7 -52 -5 l-53 3 -3 98 -3 97 99 0 c71 0 104 4 118 15 17 13 5
14 -113 15 l-133 0 0 -130z m178 20 c25 -40 -28 -81 -58 -45 -11 13 -11 20 0
40 16 30 41 32 58 5z"/>
<path d="M964 1582 c-38 -25 -40 -103 -4 -122 32 -17 79 -11 102 12 21 21 21
23 5 26 -10 2 -26 -3 -36 -12 -24 -22 -38 -20 -56 8 -28 42 13 90 52 61 24
-19 43 -19 43 0 0 28 -76 48 -106 27z"/>
<path d="M1115 1570 c-40 -44 -10 -120 47 -120 42 0 65 16 73 49 6 30 -7 69
-29 83 -22 15 -73 8 -91 -12z m90 -31 c12 -18 -4 -57 -26 -64 -27 -9 -49 11
-49 46 0 45 51 58 75 18z"/>
<path d="M1260 1520 l0 -70 48 0 c59 0 82 20 82 72 0 48 -25 68 -83 68 l-47 0
0 -70z m95 1 c0 -29 -4 -36 -27 -42 -34 -9 -38 -4 -38 43 0 38 1 39 33 36 29
-3 32 -6 32 -37z"/>
<path d="M1420 1520 l0 -70 50 0 c40 0 50 3 50 16 0 13 -7 15 -35 11 -31 -5
-35 -3 -35 15 0 17 4 20 30 15 22 -5 30 -3 30 8 0 10 -10 15 -30 15 -22 0 -30
5 -30 18 0 15 6 17 35 14 27 -3 35 -1 35 12 0 13 -11 16 -50 16 l-50 0 0 -70z"/>
<path d="M1550 1575 c-19 -23 -5 -44 47 -66 36 -15 44 -22 33 -29 -22 -14 -36
-12 -54 6 -9 8 -23 14 -31 12 -14 -3 -14 -6 0 -25 22 -31 99 -33 115 -3 15 27
6 38 -48 61 -32 14 -42 23 -35 30 12 12 53 3 53 -12 0 -5 7 -9 15 -9 18 0 20
21 3 38 -17 17 -83 15 -98 -3z"/>
<path d="M1701 1564 c-24 -31 -26 -43 -9 -79 17 -37 86 -46 122 -15 20 16 20
69 0 98 -23 33 -86 31 -113 -4z m80 -4 c30 -17 26 -67 -7 -82 -23 -11 -29 -10
-45 11 -24 29 -24 36 1 61 23 23 25 23 51 10z"/>
<path d="M1850 1536 c0 -66 16 -86 69 -86 50 0 61 14 61 82 0 45 -3 58 -15 58
-11 0 -15 -12 -15 -49 0 -56 -20 -82 -48 -64 -12 7 -17 25 -17 62 0 42 -3 51
-17 51 -15 0 -18 -9 -18 -54z"/>
<path d="M2014 1520 c-20 -66 -20 -70 -3 -70 10 0 19 9 21 22 4 31 57 32 69 1
5 -13 15 -23 24 -23 8 0 15 1 15 3 -1 1 -9 31 -19 67 -17 63 -19 65 -52 68
l-35 3 -20 -71z m71 23 c5 -20 3 -23 -19 -23 -24 0 -24 2 -14 31 11 32 21 29
33 -8z"/>
<path d="M2160 1521 c0 -56 3 -71 15 -71 9 0 15 9 15 25 0 21 5 25 30 25 25 0
30 -4 30 -25 0 -16 6 -25 15 -25 10 0 15 10 15 30 0 24 -4 30 -21 30 -21 0
-21 0 2 19 37 30 16 55 -50 59 l-51 3 0 -70z m80 24 c0 -5 -12 -13 -25 -17
-21 -5 -25 -3 -25 17 0 20 4 22 25 17 13 -4 25 -11 25 -17z"/>
<path d="M2310 1520 l0 -70 50 0 c40 0 50 3 50 16 0 13 -7 15 -35 11 -31 -5
-35 -3 -35 15 0 17 4 20 30 15 22 -5 30 -3 30 8 0 10 -10 15 -30 15 -22 0 -30
5 -30 18 0 15 6 17 35 14 27 -3 35 -1 35 12 0 13 -11 16 -50 16 l-50 0 0 -70z"/>
<path d="M1744 1435 c-51 -14 -32 -25 48 -25 51 0 68 3 68 14 0 18 -68 25
-116 11z"/>
</g>
</svg>
